<?xml version="1.0" encoding="utf-8"?>
<!-- Generator: Adobe Illustrator 19.1.0, SVG Export Plug-In . SVG Version: 6.00 Build 0)  -->
<svg version="1.1" id="Ebene_1" xmlns="http://www.w3.org/2000/svg" xmlns:xlink="http://www.w3.org/1999/xlink" x="0px" y="0px"
	 viewBox="-14 16 71 69" style="enable-background:new -14 16 71 69;" xml:space="preserve">
<style type="text/css">
	.st0{fill:none;enable-background:new    ;}
	.st1{fill:#BA984A;}
</style>
<path class="st0" d="z"/>
<path class="st1" d="M-14,21.2l2.5,58.8l32.6,2.6V58.4h-5.2v-8.7h5.2c0,0,0-5.8,0-7.1c0-1.3-0.3-10,11-10c1.5,0,4.9,0,7.9,0
	c0,3.8,0,7.9,0,9.1c-2.3,0-4.7,0-5.8,0c-1.2,0-2.3,1.2-2.3,2.1c0,0.9,0,6,0,6s7.2,0,8.2,0c-0.3,4.6-1,8.8-1,8.8h-7.2v25.1L50.7,85
	L57,16L-14,21.2z"/>
</svg>
