<?xml version="1.0" encoding="utf-8"?>
<!-- Generator: Adobe Illustrator 19.1.0, SVG Export Plug-In . SVG Version: 6.00 Build 0)  -->
<svg version="1.1" id="Ebene_1" xmlns="http://www.w3.org/2000/svg" xmlns:xlink="http://www.w3.org/1999/xlink" x="0px" y="0px"
	 viewBox="-14 15 71 71" style="enable-background:new -14 15 71 71;" xml:space="preserve">
<style type="text/css">
	.st0{fill:none;enable-background:new    ;}
	.st1{fill:#BA984A;}
</style>
<path class="st0" d="z"/>
<path class="st1" d="M-14.1,15l7.4,71l60.4-5.5l3.2-60.6L-14.1,15z M0.5,36.9h43.1c0.1,0,0.1,0,0.2,0.1L24,53.4l-0.8,0.7
	c0,0,0,0,0,0l-0.1,0c-0.3,0.2-0.6,0.3-0.9,0.3h0c-0.4,0-0.8-0.1-1-0.3L0.3,37C0.4,36.9,0.4,36.9,0.5,36.9z M0.2,39.2l14.9,12.2
	l-14.9,12V39.2z M43.8,65.8c0,0.1-0.1,0.2-0.2,0.2H0.5c-0.1,0-0.2-0.1-0.2-0.2v0l16.3-13.2l3.4,2.8c0.6,0.5,1.4,0.7,2.2,0.7
	c0.8,0,1.6-0.3,2.2-0.8l3.3-2.7L43.8,65.8L43.8,65.8z M43.8,63.5L29,51.6l14.8-12.2V63.5z"/>
</svg>
