<?xml version="1.0" encoding="utf-8"?>
<!-- Generator: Adobe Illustrator 19.1.0, SVG Export Plug-In . SVG Version: 6.00 Build 0)  -->
<svg version="1.1" id="Ebene_1" xmlns="http://www.w3.org/2000/svg" xmlns:xlink="http://www.w3.org/1999/xlink" x="0px" y="0px"
	 viewBox="-14 15 71 71" style="enable-background:new -14 15 71 71;" xml:space="preserve">
<style type="text/css">
	.st0{fill:none;enable-background:new    ;}
	.st1{fill:#BA984A;}
</style>
<path class="st0" d="z"/>
<path class="st1" d="M-14,20l2.8,60.6l61,5.4L57,15L-14,20z M44.8,67.3L38,74c-0.3,0.3-0.7,0.6-1.2,0.9c-0.5,0.2-1,0.4-1.4,0.5
	c0,0-0.1,0-0.3,0c-0.2,0-0.4,0-0.7,0c-0.6,0-1.7-0.1-3.1-0.3c-1.4-0.2-3.2-0.8-5.3-1.6c-2.1-0.9-4.4-2.2-7.1-3.9
	c-2.6-1.7-5.5-4.1-8.4-7.1c-2.4-2.3-4.3-4.6-5.9-6.7c-1.6-2.1-2.8-4.1-3.8-5.9c-0.9-1.8-1.7-3.5-2.1-4.9c-0.5-1.5-0.8-2.7-1-3.8
	s-0.2-1.9-0.2-2.5c0-0.6,0.1-0.9,0.1-1c0.1-0.5,0.2-1,0.5-1.4c0.2-0.5,0.5-0.9,0.9-1.2l6.8-6.8c0.5-0.5,1-0.7,1.6-0.7
	c0.4,0,0.8,0.1,1.2,0.4c0.3,0.3,0.6,0.6,0.9,0.9L14.7,39c0.3,0.5,0.4,1.1,0.3,1.8c-0.1,0.6-0.4,1.2-0.9,1.6l-2.5,2.5
	c-0.1,0.1-0.1,0.2-0.2,0.3s-0.1,0.3-0.1,0.4c0.1,0.7,0.4,1.5,0.9,2.4c0.4,0.8,1,1.8,1.9,3s2.1,2.5,3.6,4c1.5,1.6,2.9,2.8,4.1,3.6
	c1.2,0.9,2.2,1.5,3,1.9c0.8,0.4,1.4,0.7,1.8,0.7l0.6,0.1c0.1,0,0.2,0,0.3-0.1c0.2-0.1,0.3-0.1,0.3-0.2l2.9-2.9
	c0.6-0.5,1.3-0.8,2.1-0.8c0.6,0,1,0.1,1.4,0.3h0.1l9.8,5.8c0.7,0.4,1.1,1,1.3,1.7C45.6,66,45.4,66.7,44.8,67.3z"/>
</svg>
