<?xml version="1.0" encoding="utf-8"?>
<!-- Generator: Adobe Illustrator 19.1.0, SVG Export Plug-In . SVG Version: 6.00 Build 0)  -->
<svg version="1.1" id="Ebene_1" xmlns="http://www.w3.org/2000/svg" xmlns:xlink="http://www.w3.org/1999/xlink" x="0px" y="0px"
	 viewBox="-232 272.5 88.2 37.5" style="enable-background:new -232 272.5 88.2 37.5;" xml:space="preserve">
<style type="text/css">
	.st0{fill:#BA984A;}
	.st1{fill:url(#SVGID_1_);}
	.st2{enable-background:new    ;}
	.st3{fill:#FFFFFF;}
</style>
<polygon class="st0" points="-154.7,310 -232,307.8 -232,275.8 -143.8,272.5 "/>
<g>
	
		<linearGradient id="SVGID_1_" gradientUnits="userSpaceOnUse" x1="756" y1="230.9689" x2="756" y2="318.9715" gradientTransform="matrix(1 0 0 -1 0 482.4)">
		<stop  offset="0" style="stop-color:#009FE3"/>
		<stop  offset="1" style="stop-color:#36A9E1"/>
	</linearGradient>
	<rect x="676" y="161.5" class="st1" width="160" height="119.3"/>
	<text transform="matrix(1 0 0 1 684.7393 217.6214)" class="st3" style="font-family:'LeagueGothic-Regular'; font-size:55px;">Schau</text>
	<text transform="matrix(1 0 0 1 684.7393 262.6214)" class="st3" style="font-family:'LeagueGothic-Regular'; font-size:55px;">fenster</text>
	<g>
		<rect x="686.8" y="286.2" width="84.6" height="14.2"/>
		<rect x="686.8" y="269.4" width="101.6" height="14.2"/>
		
			<text transform="matrix(1 2.500000e-04 -2.500000e-04 1 689.8015 281.9509)" class="st3" style="font-family:'Univers-CondensedLight'; font-size:14.7895px;">Fachgeschäfte</text>
		
			<text transform="matrix(1 2.500000e-04 -2.500000e-04 1 689.7972 298.9509)" class="st3" style="font-family:'Univers-CondensedBold'; font-size:14.7895px;">in der City</text>
	</g>
</g>
<g>
	<path class="st3" d="M-209.8,285.9c0.4,0,0.8,0.1,1.2,0.2s0.7,0.3,1,0.5s0.5,0.5,0.6,0.8s0.2,0.8,0.2,1.2v0.2h-1.3v-0.2
		c0-0.2,0-0.5-0.1-0.7s-0.2-0.3-0.4-0.5s-0.3-0.2-0.5-0.3s-0.4-0.1-0.7-0.1c-0.3,0-0.5,0-0.7,0.1s-0.4,0.1-0.6,0.2s-0.3,0.2-0.4,0.4
		c-0.1,0.2-0.1,0.4-0.1,0.6c0,0.3,0.1,0.5,0.2,0.7s0.3,0.4,0.6,0.5s0.5,0.3,0.8,0.4c0.3,0.1,0.6,0.2,0.9,0.3
		c0.3,0.1,0.6,0.2,0.9,0.4c0.3,0.1,0.6,0.3,0.8,0.5c0.2,0.2,0.4,0.4,0.6,0.7c0.1,0.3,0.2,0.6,0.2,1.1c0,0.5-0.1,1-0.2,1.4
		c-0.2,0.4-0.4,0.7-0.7,0.9s-0.6,0.4-1,0.5c-0.4,0.1-0.8,0.2-1.3,0.2c-0.4,0-0.9-0.1-1.2-0.2s-0.7-0.3-1-0.5
		c-0.3-0.2-0.5-0.5-0.7-0.9s-0.3-0.8-0.3-1.3c0,0,0-0.1,0-0.2s0-0.1,0-0.1h1.3c0,0,0,0,0,0c0,0,0,0,0,0.1s0,0.1,0,0.1
		c0,0,0,0.1,0,0.1c0,0.3,0,0.6,0.1,0.8s0.2,0.4,0.4,0.5c0.2,0.1,0.4,0.3,0.6,0.3s0.5,0.1,0.8,0.1c0.6,0,1.1-0.1,1.5-0.4
		s0.5-0.7,0.5-1.2c0-0.3-0.1-0.6-0.2-0.7s-0.3-0.4-0.6-0.5s-0.5-0.3-0.8-0.4c-0.3-0.1-0.6-0.2-0.9-0.3c-0.3-0.1-0.6-0.2-0.9-0.4
		c-0.3-0.1-0.6-0.3-0.8-0.5s-0.4-0.5-0.6-0.8c-0.1-0.3-0.2-0.7-0.2-1.1c0-0.4,0.1-0.8,0.2-1.2s0.4-0.6,0.7-0.8s0.6-0.4,1-0.5
		S-210.2,285.9-209.8,285.9z"/>
	<path class="st3" d="M-205,295.7v-9.6h5.9v1.1h-4.7v3h4.1v1.1h-4.1v3.2h4.8v1.1H-205z"/>
	<path class="st3" d="M-191,295.7h-1l-3.6-6.1c-0.1-0.1-0.1-0.2-0.2-0.4s-0.1-0.3-0.2-0.4c-0.1-0.2-0.1-0.3-0.2-0.5l0,0
		c0,0.2,0,0.3,0,0.5c0,0.1,0,0.3,0,0.4c0,0.1,0,0.3,0,0.4v6.1h-1.1v-9.6h1.1l3.6,6c0.1,0.1,0.1,0.2,0.2,0.4s0.1,0.3,0.2,0.4
		c0.1,0.2,0.1,0.3,0.2,0.5l0,0c0-0.2,0-0.4,0-0.5c0-0.1,0-0.3,0-0.4s0-0.3,0-0.3v-6h1.1V295.7z"/>
	<path class="st3" d="M-189.1,295.7v-9.6h3c0.6,0,1.1,0.1,1.5,0.3c0.4,0.2,0.8,0.5,1.1,0.9s0.6,0.9,0.7,1.5s0.2,1.3,0.2,2
		c0,0.8-0.1,1.5-0.2,2.2s-0.4,1.1-0.7,1.5s-0.7,0.7-1.1,0.9s-1,0.3-1.5,0.3H-189.1z M-187.8,287.2v7.4h1.6c0.4,0,0.7-0.1,1-0.2
		s0.6-0.4,0.8-0.6s0.4-0.6,0.5-1.1s0.2-0.9,0.2-1.5v-0.7c0-0.5-0.1-1-0.2-1.4c-0.1-0.4-0.3-0.7-0.5-1c-0.2-0.3-0.5-0.5-0.8-0.6
		c-0.3-0.1-0.6-0.2-1-0.2H-187.8z"/>
	<path class="st3" d="M-180.8,295.7v-9.6h5.9v1.1h-4.7v3h4.1v1.1h-4.1v3.2h4.8v1.1H-180.8z"/>
	<path class="st3" d="M-166.8,295.7h-1l-3.6-6.1c-0.1-0.1-0.1-0.2-0.2-0.4s-0.1-0.3-0.2-0.4c-0.1-0.2-0.1-0.3-0.2-0.5l0,0
		c0,0.2,0,0.3,0,0.5c0,0.1,0,0.3,0,0.4c0,0.1,0,0.3,0,0.4v6.1h-1.1v-9.6h1.1l3.6,6c0.1,0.1,0.1,0.2,0.2,0.4s0.1,0.3,0.2,0.4
		c0.1,0.2,0.1,0.3,0.2,0.5l0,0c0-0.2,0-0.4,0-0.5c0-0.1,0-0.3,0-0.4s0-0.3,0-0.3v-6h1.1V295.7z"/>
</g>
</svg>
